# xmcd
#
# Track frame offsets: 
#        150
#        16693
#        34409
#        49955
#        64186
#        97208
#        125388
#        145231
#        164116
#
# Disc length: 2561 seconds
#
# Revision: 2
# Processed by: cddbd v1.5.2PL0 Copyright (c) Steve Scherf et al.
# Submitted via: ExactAudioCopy v0.99pb5
#
DISCID=8409ff09
DTITLE=Abdullah Ibrahim (Dollar Brand) - Duke's Memories (The Definiti
DTITLE=ve Black and Blue Sessions)
DYEAR=1981
DGENRE=Jazz
TTITLE0=The Wedding (A. Ibrahim)
TTITLE1=Black and Brown Cherries (A. Ibrahim)
TTITLE2=For Coltrane (A. Ibrahim)
TTITLE3=In a Sentimental Mood (D. Ellington)
TTITLE4=Angelica - Purple Gazelle (D. Ellington)
TTITLE5=Star Crossed Lovers (D. Ellington)
TTITLE6=Way Way Back (D. Ellington - J. Hodges)
TTITLE7=Virgin Jungle (D. Ellington)
TTITLE8=Water Edge (A. Ibrahim)
EXTD=ID3G: 8
EXTT0=
EXTT1=
EXTT2=
EXTT3=
EXTT4=
EXTT5=
EXTT6=
EXTT7=
EXTT8=
PLAYORDER=
